<svg xmlns="http://www.w3.org/2000/svg" width="90" height="48" viewBox="0 0 118 76" fill="none">
    <path d="M2.74023 70.0763V6C2.74023 4.34315 4.08338 3 5.74024 3H91.8917C92.9399 3 93.912 3.54708 94.456 4.44307L114.66 37.7197C115.259 38.7072 115.238 39.9514 114.606 40.9184L94.468 71.7181C93.9139 72.5655 92.9696 73.0763 91.9571 73.0763H5.74023C4.08338 73.0763 2.74023 71.7332 2.74023 70.0763Z" stroke="#4B4B4B" stroke-width="5"/>
    <path d="M24.2544 48C23.7997 48 23.4174 47.845 23.1074 47.535C22.7974 47.225 22.6424 46.8427 22.6424 46.388V25.401C22.6424 24.9257 22.7974 24.5433 23.1074 24.254C23.4174 23.944 23.7997 23.789 24.2544 23.789C24.8744 23.789 25.3497 24.0783 25.6804 24.657L35.3834 44.094H34.3914L43.8464 24.657C44.1771 24.0783 44.6524 23.789 45.2724 23.789C45.7271 23.789 46.1094 23.944 46.4194 24.254C46.7294 24.5433 46.8844 24.9257 46.8844 25.401V46.388C46.8844 46.8427 46.7191 47.225 46.3884 47.535C46.0784 47.845 45.7064 48 45.2724 48C44.8177 48 44.4354 47.845 44.1254 47.535C43.8154 47.225 43.6604 46.8427 43.6604 46.388V29.865L44.2804 29.71L36.1584 46.264C35.8071 46.8013 35.3421 47.07 34.7634 47.07C34.0814 47.07 33.5854 46.7497 33.2754 46.109L25.2464 30.02L25.8664 29.865V46.388C25.8664 46.8427 25.7114 47.225 25.4014 47.535C25.0914 47.845 24.7091 48 24.2544 48ZM59.8555 48.124C58.3468 48.124 56.9931 47.752 55.7945 47.008C54.5958 46.2433 53.6451 45.2203 52.9425 43.939C52.2605 42.637 51.9195 41.1697 51.9195 39.537C51.9195 37.9043 52.2915 36.437 53.0355 35.135C53.8001 33.833 54.8231 32.81 56.1045 32.066C57.4065 31.3013 58.8635 30.919 60.4755 30.919C62.0875 30.919 63.5341 31.3013 64.8155 32.066C66.0968 32.81 67.1095 33.833 67.8535 35.135C68.6181 36.437 69.0005 37.9043 69.0005 39.537H67.7915C67.7915 41.1697 67.4401 42.637 66.7375 43.939C66.0555 45.2203 65.1151 46.2433 63.9165 47.008C62.7178 47.752 61.3641 48.124 59.8555 48.124ZM60.4755 45.334C61.5295 45.334 62.4698 45.086 63.2965 44.59C64.1231 44.0733 64.7741 43.381 65.2495 42.513C65.7248 41.6243 65.9625 40.6323 65.9625 39.537C65.9625 38.421 65.7248 37.429 65.2495 36.561C64.7741 35.6723 64.1231 34.98 63.2965 34.484C62.4698 33.9673 61.5295 33.709 60.4755 33.709C59.4421 33.709 58.5018 33.9673 57.6545 34.484C56.8278 34.98 56.1665 35.6723 55.6705 36.561C55.1951 37.429 54.9575 38.421 54.9575 39.537C54.9575 40.6323 55.1951 41.6243 55.6705 42.513C56.1665 43.381 56.8278 44.0733 57.6545 44.59C58.5018 45.086 59.4421 45.334 60.4755 45.334ZM67.4195 48.031C66.9648 48.031 66.5825 47.8863 66.2725 47.597C65.9831 47.287 65.8385 46.9047 65.8385 46.45V41.707L66.4275 38.421L69.0005 39.537V46.45C69.0005 46.9047 68.8455 47.287 68.5355 47.597C68.2461 47.8863 67.8741 48.031 67.4195 48.031ZM75.5974 48C75.1427 48 74.7604 47.8553 74.4504 47.566C74.1611 47.256 74.0164 46.8737 74.0164 46.419V32.624C74.0164 32.1487 74.1611 31.7663 74.4504 31.477C74.7604 31.1877 75.1427 31.043 75.5974 31.043C76.0727 31.043 76.4551 31.1877 76.7444 31.477C77.0337 31.7663 77.1784 32.1487 77.1784 32.624V46.419C77.1784 46.8737 77.0337 47.256 76.7444 47.566C76.4551 47.8553 76.0727 48 75.5974 48ZM75.5974 28.284C75.0394 28.284 74.5537 28.0877 74.1404 27.695C73.7477 27.2817 73.5514 26.796 73.5514 26.238C73.5514 25.68 73.7477 25.2047 74.1404 24.812C74.5537 24.3987 75.0394 24.192 75.5974 24.192C76.1554 24.192 76.6307 24.3987 77.0234 24.812C77.4367 25.2047 77.6434 25.68 77.6434 26.238C77.6434 26.796 77.4367 27.2817 77.0234 27.695C76.6307 28.0877 76.1554 28.284 75.5974 28.284ZM87.0909 48C86.1816 48 85.3756 47.752 84.6729 47.256C83.9702 46.76 83.4226 46.0883 83.0299 45.241C82.6372 44.373 82.4409 43.381 82.4409 42.265V25.339C82.4409 24.8843 82.5856 24.5123 82.8749 24.223C83.1642 23.9337 83.5362 23.789 83.9909 23.789C84.4456 23.789 84.8176 23.9337 85.1069 24.223C85.3962 24.5123 85.5409 24.8843 85.5409 25.339V42.265C85.5409 43.0297 85.6856 43.66 85.9749 44.156C86.2642 44.652 86.6362 44.9 87.0909 44.9H87.8659C88.2792 44.9 88.6099 45.0447 88.8579 45.334C89.1266 45.6233 89.2609 45.9953 89.2609 46.45C89.2609 46.9047 89.0646 47.2767 88.6719 47.566C88.2792 47.8553 87.7729 48 87.1529 48H87.0909Z" fill="#4B4B4B"/>
    </svg>